<?xml version="1.0" encoding="UTF-8" standalone="no"?>
<!-- Created with Inkscape (http://www.inkscape.org/) -->

<svg
   width="275.86465mm"
   height="127.82374mm"
   viewBox="0 0 275.86465 127.82374"
   version="1.1"
   id="svg1"
   xml:space="preserve"
   inkscape:version="1.3 (0e150ed, 2023-07-21)"
   sodipodi:docname="ctbf-partners.svg"
   xmlns:inkscape="http://www.inkscape.org/namespaces/inkscape"
   xmlns:sodipodi="http://sodipodi.sourceforge.net/DTD/sodipodi-0.dtd"
   xmlns="http://www.w3.org/2000/svg"
   xmlns:svg="http://www.w3.org/2000/svg">&#10;  <sodipodi:namedview
   id="namedview1"
   pagecolor="#ffffff"
   bordercolor="#000000"
   borderopacity="0.25"
   inkscape:showpageshadow="2"
   inkscape:pageopacity="0.0"
   inkscape:pagecheckerboard="0"
   inkscape:deskcolor="#d1d1d1"
   inkscape:document-units="mm"
   inkscape:zoom="0.36479888"
   inkscape:cx="420.7798"
   inkscape:cy="213.81645"
   inkscape:window-width="1440"
   inkscape:window-height="781"
   inkscape:window-x="0"
   inkscape:window-y="25"
   inkscape:window-maximized="1"
   inkscape:current-layer="g1"
   showguides="true">&#10;  </sodipodi:namedview>&#10;  <defs
   id="defs1" />&#10;  <g
   id="g1"
   inkscape:groupmode="layer"
   inkscape:label="1"
   transform="matrix(0.26458333,0,0,0.26458334,-17.436182,-40.974087)">&#10;    <path
   id="path1"
   d="m 6577.45,4787.49 -579,-579 h 579"
   style="fill:#92292e;fill-opacity:1;fill-rule:nonzero;stroke:none"
   transform="matrix(0.13333333,0,0,-0.13333333,0,793.70667)" />&#10;    <path
   id="path2"
   d="m 7735.04,4791.33 -578.69,-580.02 -576.92,576.92 -579.44,-579.74 1156.49,-1157.31 1157.56,1161.15 -579,579"
   style="fill:#ed1c24;fill-opacity:1;fill-rule:nonzero;stroke:none"
   transform="matrix(0.13333333,0,0,-0.13333333,0,793.70667)" />&#10;    <path
   id="path3"
   d="m 7156.56,4212.22 579,-579 h -579"
   style="fill:#92292e;fill-opacity:1;fill-rule:nonzero;stroke:none"
   transform="matrix(0.13333333,0,0,-0.13333333,0,793.70667)" />&#10;    <path
   id="path4"
   d="m 7156.44,4212.33 -579,-579 h 579"
   style="fill:#b6242a;fill-opacity:1;fill-rule:nonzero;stroke:none"
   transform="matrix(0.13333333,0,0,-0.13333333,0,793.70667)" />&#10;    <path
   id="path5"
   d="m 8314.04,4212.33 -579,579 v -579"
   style="fill:#92292e;fill-opacity:1;fill-rule:nonzero;stroke:none"
   transform="matrix(0.13333333,0,0,-0.13333333,0,793.70667)" />&#10;    <path
   id="path6"
   d="m 7735.78,3633.22 -579.01,579 h 579.01"
   style="fill:#b6242a;fill-opacity:1;fill-rule:nonzero;stroke:none"
   transform="matrix(0.13333333,0,0,-0.13333333,0,793.70667)" />&#10;    <path
   id="path7"
   d="m 6578.99,4788.62 -579,-579 h 579"
   style="fill:#92292e;fill-opacity:1;fill-rule:nonzero;stroke:none"
   transform="matrix(0.13333333,0,0,-0.13333333,0,793.70667)" />&#10;    <path
   id="path8"
   d="m 1016,3162.1 c -150.242,0 -274.746,-49.59 -373.547,-148.76 -98.797,-99.18 -148.199,-223.87 -148.199,-374.1 0,-147.28 48.293,-268.83 144.867,-364.67 96.582,-95.85 219.977,-143.75 370.219,-143.75 148.01,0 282.33,39.58 402.97,118.78 74.74,48.84 112.12,89.17 112.12,121 0,12.57 -4.27,23.12 -12.77,31.63 -8.51,8.5 -19.06,12.77 -31.64,12.77 -11.84,0 -25.53,-7.41 -41.07,-22.2 -60.69,-59.22 -128.6,-102.13 -203.7,-128.77 -75.13,-26.65 -148.95,-39.97 -221.47,-39.97 -125.819,0 -228.315,39.22 -307.495,117.67 -79.199,78.44 -118.781,177.98 -118.781,298.62 0,111.74 35.887,210.92 107.68,297.51 71.773,86.59 176.871,129.88 315.266,129.88 109.52,0 196.66,-23.69 261.43,-71.05 64.75,-47.37 99.35,-97.32 103.79,-149.86 1.48,-19.98 6.47,-34.24 14.99,-42.74 8.5,-8.52 19.05,-12.77 31.64,-12.77 14.05,0 25.34,4.81 33.86,14.44 8.5,9.61 13.13,25.89 13.87,48.84 v 210.92 c 0,22.93 -4.44,39.22 -13.32,48.84 -8.88,9.61 -20.36,14.44 -34.41,14.44 -13.32,0 -24.42,-4.83 -33.3,-14.44 -8.89,-9.62 -13.33,-25.91 -13.33,-48.84 v -31.08 c -96.96,85.09 -216.85,127.66 -359.67,127.66 z m 1279.81,242 c 0,22.2 -4.44,38.11 -13.32,47.73 -8.88,9.61 -20.36,14.44 -34.41,14.44 -13.32,0 -24.42,-4.83 -33.3,-14.44 -8.88,-9.62 -13.32,-25.53 -13.32,-47.73 v -275.3 h -172.07 c -22.2,0 -38.12,-4.45 -47.73,-13.33 -9.63,-8.88 -14.44,-19.98 -14.44,-33.3 0,-14.07 4.81,-25.53 14.44,-34.41 9.61,-8.88 25.53,-13.32 47.73,-13.32 h 172.07 v -620.55 c 0,-86.59 32.19,-155.41 96.57,-206.48 64.39,-51.06 150.98,-76.59 259.77,-76.59 83.62,0 171.13,14.25 262.54,42.73 91.39,28.49 148.92,54.95 172.62,79.38 9.61,9.61 14.43,19.98 14.43,31.08 0,12.57 -4.44,23.48 -13.32,32.75 -8.88,9.24 -19.26,13.87 -31.09,13.87 -9.62,0 -21.83,-4.82 -36.63,-14.43 -40.71,-23.69 -97.69,-44.96 -170.95,-63.83 -73.27,-18.87 -141.37,-28.31 -204.26,-28.31 -83.64,0 -147.09,18.13 -190.38,54.4 -43.3,36.25 -64.95,81.4 -64.95,135.43 v 620.55 h 506.21 c 22.2,0 38.11,4.44 47.73,13.32 9.61,8.88 14.44,19.98 14.44,33.3 0,14.05 -4.83,25.53 -14.44,34.41 -9.62,8.88 -25.53,13.33 -47.73,13.33 h -506.21 z m 1156.28,156.52 c -22.2,0 -38.12,-4.44 -47.73,-13.32 -9.63,-8.88 -14.43,-19.98 -14.43,-33.3 0,-14.07 4.8,-25.53 14.43,-34.41 9.61,-8.88 25.53,-13.32 47.73,-13.32 h 125.45 V 2260.7 h -125.45 c -22.2,0 -38.12,-4.27 -47.73,-12.77 -9.63,-8.52 -14.43,-19.81 -14.43,-33.86 0,-13.32 4.8,-24.42 14.43,-33.3 9.61,-8.88 25.53,-13.32 47.73,-13.32 h 218.69 v 183.17 c 108.79,-146.54 244.59,-219.8 407.41,-219.8 133.94,0 249.95,50.31 348.02,150.97 98.05,100.64 147.08,223.49 147.08,368.55 0,143.57 -48.47,264.76 -145.42,363.56 -96.96,98.8 -213.52,148.2 -349.68,148.2 -159.13,0 -294.92,-73.27 -407.41,-219.8 v 618.32 z m 906.96,-1213.89 c -80.68,-81.78 -175.04,-122.67 -283.08,-122.67 -108.06,0 -202.42,40.89 -283.08,122.67 -80.67,81.77 -121,181.5 -121,299.17 0,117.67 40.33,217.39 121,299.17 80.66,81.77 175.02,122.67 283.08,122.67 108.04,0 202.4,-40.9 283.08,-122.67 80.65,-81.78 121,-181.5 121,-299.17 0,-117.67 -40.35,-217.4 -121,-299.17 z m 1424.79,687.71 c 22.2,0 38.1,4.44 47.73,13.32 9.61,8.88 14.43,19.98 14.43,33.3 0,14.05 -4.82,25.53 -14.43,34.41 -9.63,8.88 -25.53,13.33 -47.73,13.33 h -436.27 v 140.98 c 0,51.06 22.01,96.58 66.05,136.54 44.02,39.96 106.74,59.95 188.16,59.95 76.96,0 171.32,-8.52 283.08,-25.54 14.05,-2.22 24.04,-3.33 29.97,-3.33 14.79,0 26.64,4.25 35.52,12.77 8.88,8.5 13.32,19.43 13.32,32.75 0,13.32 -3.88,24.04 -11.65,32.19 -7.77,8.13 -30.53,15.16 -68.27,21.09 -99.91,16.27 -193.91,24.42 -281.97,24.42 -105.09,0 -189.46,-28.86 -253.1,-86.58 -63.66,-57.73 -95.47,-125.83 -95.47,-204.26 V 3128.8 h -202.04 c -22.2,0 -38.12,-4.45 -47.73,-13.33 -9.63,-8.88 -14.43,-19.98 -14.43,-33.3 0,-14.07 4.8,-25.53 14.43,-34.41 9.61,-8.88 25.53,-13.32 47.73,-13.32 h 202.04 V 2260.7 h -225.35 c -22.2,0 -38.13,-4.27 -47.74,-12.77 -9.62,-8.52 -14.43,-19.81 -14.43,-33.86 0,-13.32 4.81,-24.42 14.43,-33.3 9.61,-8.88 25.54,-13.32 47.74,-13.32 h 729.33 c 22.21,0 38.11,4.44 47.74,13.32 9.61,8.88 14.43,19.98 14.43,33.3 0,14.05 -4.82,25.34 -14.43,33.86 -9.63,8.5 -25.53,12.77 -47.74,12.77 h -409.62 v 773.74 h 436.27"
   style="fill:#231f20;fill-opacity:1;fill-rule:nonzero;stroke:none"
   transform="matrix(0.13333333,0,0,-0.13333333,0,793.70667)" />&#10;    <path
   id="path9"
   d="m 621.965,1593.7 c -6.801,0 -11.68,-1.37 -14.621,-4.09 -2.949,-2.72 -4.422,-6.12 -4.422,-10.2 0,-4.31 1.473,-7.82 4.422,-10.54 2.941,-2.72 7.82,-4.08 14.621,-4.08 h 38.426 v -368.25 h -38.426 c -6.801,0 -11.68,-1.3 -14.621,-3.91 -2.949,-2.6 -4.422,-6.06 -4.422,-10.37 0,-4.31 1.473,-7.76 4.422,-10.37 2.941,-2.61 7.82,-3.91 14.621,-3.91 h 136.351 c 6.801,0 11.672,1.36 14.622,4.08 2.945,2.72 4.421,6.12 4.421,10.2 0,4.31 -1.476,7.77 -4.421,10.37 -2.95,2.61 -7.821,3.91 -14.622,3.91 h -69.367 v 172.05 c 31.739,-41.48 73.11,-62.22 124.114,-62.22 42.843,0 78.941,14.56 108.3,43.69 29.352,29.13 44.032,64.21 44.032,105.24 0,25.85 -6.516,50.5 -19.551,73.96 -13.039,23.46 -31.453,41.76 -55.254,54.91 -23.805,13.15 -49.762,19.73 -77.867,19.73 -26.524,0 -49.535,-5.22 -69.028,-15.65 -19.5,-10.42 -37.742,-25.95 -54.746,-46.58 v 52.03 z m 278.484,-223.23 c -24.027,-23.47 -53.16,-35.2 -87.386,-35.2 -34.684,0 -64.043,11.79 -88.071,35.37 -24.027,23.57 -36.043,51.79 -36.043,84.66 0,32.65 12.016,60.75 36.043,84.33 24.028,23.57 53.387,35.36 88.071,35.36 34.453,0 63.636,-11.73 87.558,-35.19 23.914,-23.46 35.871,-51.63 35.871,-84.5 0,-33.1 -12.015,-61.37 -36.043,-84.83 z m 490.981,-71.24 c 7.02,0 12.01,1.36 14.96,4.08 2.94,2.72 4.42,6.12 4.42,10.2 0,4.3 -1.48,7.76 -4.42,10.37 -2.95,2.6 -7.94,3.91 -14.96,3.91 h -38.09 v 189.06 c 0,22.44 -10.09,42.56 -30.26,60.35 -20.18,17.8 -48.28,26.7 -84.33,26.7 -18.13,0 -44.88,-4.76 -80.24,-14.29 -22.45,-5.89 -35.26,-10.54 -38.43,-13.94 -2.27,-2.27 -3.4,-5.33 -3.4,-9.18 0,-4.08 1.3,-7.48 3.91,-10.2 2.61,-2.72 5.72,-4.08 9.35,-4.08 2.04,0 6.69,1.13 13.94,3.4 40.13,12.92 71.29,19.38 93.51,19.38 29.02,0 50.78,-5.78 65.29,-17.34 14.5,-11.56 21.76,-25.16 21.76,-40.8 v -46.25 c -17.91,3.63 -34.57,6.29 -49.98,7.99 -15.42,1.7 -29.7,2.56 -42.85,2.56 -48.74,0 -85.8,-10.32 -111.19,-30.95 -25.39,-20.63 -38.08,-44.77 -38.08,-72.42 0,-25.17 9.63,-46.42 28.9,-63.76 19.27,-17.34 46.02,-26.01 80.25,-26.01 47.15,0 91.47,17.45 132.95,52.36 v -41.14 z m -66.99,79.23 c -22.44,-21.54 -44.26,-37.24 -65.45,-47.1 -21.2,-9.86 -44.16,-14.79 -68.86,-14.79 -25.84,0 -45.51,5.89 -59,17.68 -13.49,11.79 -20.23,26.3 -20.23,43.53 0,18.58 8.84,34.56 26.52,47.94 23.35,17.9 55.77,26.86 97.25,26.86 16.55,0 32.31,-0.91 47.27,-2.72 14.96,-1.81 29.12,-4.65 42.5,-8.5 z m 248.2,215.24 c -7.03,0 -11.96,-1.37 -14.79,-4.09 -2.84,-2.72 -4.26,-6.12 -4.26,-10.2 0,-4.31 1.48,-7.82 4.42,-10.54 2.95,-2.72 7.83,-4.08 14.63,-4.08 h 52.7 v -238.02 h -69.03 c -7.02,0 -11.95,-1.31 -14.79,-3.91 -2.83,-2.61 -4.25,-5.84 -4.25,-9.69 0,-4.08 1.47,-7.43 4.42,-10.03 2.95,-2.61 7.82,-3.91 14.62,-3.91 h 224.09 c 7.02,0 12.01,1.36 14.96,4.08 2.94,2.72 4.42,6.12 4.42,10.2 0,4.3 -1.48,7.76 -4.42,10.37 -2.95,2.6 -7.94,3.91 -14.96,3.91 h -126.5 v 156.42 c 43.3,38.76 73.73,63.12 91.3,73.1 17.57,9.97 32.59,14.96 45.06,14.96 5.66,0 11.44,-1.47 17.34,-4.42 5.89,-2.95 12.8,-8.39 20.74,-16.32 4.3,-4.31 7.25,-6.86 8.84,-7.65 1.58,-0.8 3.51,-1.19 5.78,-1.19 4.3,0 7.87,1.41 10.71,4.25 2.83,2.83 4.25,6.4 4.25,10.71 0,5.89 -7.31,14.56 -21.93,26.01 -14.62,11.45 -30.43,17.18 -47.43,17.18 -15.65,0 -32.71,-4.82 -51.18,-14.46 -18.48,-9.63 -46.3,-31.23 -83.48,-64.77 v 72.09 z m 502.53,84.32 c 0,6.8 -1.36,11.68 -4.08,14.62 -2.72,2.95 -6.23,4.42 -10.54,4.42 -4.08,0 -7.48,-1.47 -10.2,-4.42 -2.72,-2.94 -4.08,-7.82 -4.08,-14.62 v -84.32 h -52.7 c -6.8,0 -11.68,-1.37 -14.62,-4.09 -2.95,-2.72 -4.42,-6.12 -4.42,-10.2 0,-4.31 1.47,-7.82 4.42,-10.54 2.94,-2.72 7.82,-4.08 14.62,-4.08 h 52.7 v -190.07 c 0,-26.53 9.86,-47.61 29.58,-63.25 19.73,-15.64 46.25,-23.46 79.57,-23.46 25.62,0 52.42,4.36 80.42,13.09 27.99,8.72 45.62,16.83 52.87,24.31 2.95,2.94 4.42,6.12 4.42,9.52 0,3.85 -1.36,7.2 -4.08,10.03 -2.72,2.83 -5.89,4.25 -9.52,4.25 -2.95,0 -6.69,-1.47 -11.22,-4.42 -12.47,-7.25 -29.92,-13.77 -52.36,-19.55 -22.44,-5.78 -43.3,-8.67 -62.57,-8.67 -25.62,0 -45.05,5.55 -58.31,16.66 -13.26,11.11 -19.9,24.94 -19.9,41.49 v 190.07 h 155.06 c 6.8,0 11.67,1.36 14.62,4.08 2.94,2.72 4.42,6.12 4.42,10.2 0,4.31 -1.48,7.82 -4.42,10.54 -2.95,2.72 -7.82,4.09 -14.62,4.09 h -155.06 z m 359.39,-84.32 c -6.8,0 -11.68,-1.37 -14.62,-4.09 -2.95,-2.72 -4.42,-6.12 -4.42,-10.2 0,-4.31 1.47,-7.82 4.42,-10.54 2.94,-2.72 7.82,-4.08 14.62,-4.08 h 24.14 v -237 h -32.3 c -6.8,0 -11.68,-1.31 -14.62,-3.91 -2.95,-2.61 -4.42,-6.07 -4.42,-10.37 0,-4.08 1.47,-7.48 4.42,-10.2 2.94,-2.72 7.82,-4.08 14.62,-4.08 h 93.17 c 6.8,0 11.67,1.36 14.62,4.08 2.94,2.72 4.42,6.12 4.42,10.2 0,4.3 -1.48,7.76 -4.42,10.37 -2.95,2.6 -7.82,3.91 -14.62,3.91 h -32.31 v 179.2 c 25.62,30.14 45.34,49.01 59.17,56.61 13.82,7.59 30.15,11.39 48.96,11.39 24.71,0 44.43,-6.97 59.17,-20.91 14.73,-13.94 22.1,-31 22.1,-51.17 v -175.12 h -23.8 c -7.03,0 -12.02,-1.31 -14.96,-3.91 -2.95,-2.61 -4.42,-6.07 -4.42,-10.37 0,-4.08 1.47,-7.48 4.42,-10.2 2.94,-2.72 7.93,-4.08 14.96,-4.08 h 76.51 c 6.8,0 11.67,1.36 14.62,4.08 2.94,2.72 4.42,6.12 4.42,10.2 0,4.3 -1.48,7.76 -4.42,10.37 -2.95,2.6 -7.82,3.91 -14.62,3.91 h -24.15 v 179.88 c 0,16.54 -5.15,32.69 -15.47,48.45 -10.32,15.75 -21.82,27.03 -34.51,33.83 -17.91,9.3 -37.74,13.95 -59.51,13.95 -20.17,0 -38.31,-3.86 -54.4,-11.57 -16.1,-7.7 -34.12,-21.65 -54.07,-41.82 v 43.19 z m 700.78,-35.54 c -30.16,30.49 -68.58,45.74 -115.27,45.74 -45.35,0 -83.37,-14.85 -114.09,-44.55 -30.71,-29.7 -46.07,-65.28 -46.07,-106.77 0,-45.56 16.38,-84.38 49.14,-116.46 32.75,-32.08 73.61,-48.11 122.58,-48.11 29.24,0 57.74,4.93 85.51,14.79 27.77,9.86 47.1,20.45 57.98,31.79 3.62,3.63 5.44,7.37 5.44,11.22 0,3.85 -1.36,7.2 -4.08,10.03 -2.72,2.84 -5.9,4.25 -9.52,4.25 -3.18,0 -6.92,-1.7 -11.22,-5.1 -14.74,-11.56 -33.78,-20.86 -57.13,-27.88 -23.35,-7.03 -45.68,-10.54 -66.98,-10.54 -38.32,0 -70.45,11.27 -96.4,33.83 -25.96,22.56 -41.43,52.31 -46.42,89.26 h 291.07 c 0.45,48.51 -14.4,88.01 -44.54,118.5 z m -246.19,-89.6 c 5.9,31.97 20.86,57.69 44.89,77.19 24.02,19.49 52.7,29.24 86.03,29.24 33.32,0 62.05,-9.86 86.19,-29.58 24.14,-19.72 39.05,-45.34 44.72,-76.85 z m 466.5,125.14 c -7.03,0 -11.96,-1.37 -14.79,-4.09 -2.84,-2.72 -4.25,-6.12 -4.25,-10.2 0,-4.31 1.47,-7.82 4.42,-10.54 2.94,-2.72 7.82,-4.08 14.62,-4.08 h 52.7 v -238.02 h -69.02 c -7.03,0 -11.96,-1.31 -14.79,-3.91 -2.84,-2.61 -4.25,-5.84 -4.25,-9.69 0,-4.08 1.47,-7.43 4.42,-10.03 2.94,-2.61 7.82,-3.91 14.62,-3.91 h 224.08 c 7.02,0 12.01,1.36 14.96,4.08 2.94,2.72 4.42,6.12 4.42,10.2 0,4.3 -1.48,7.76 -4.42,10.37 -2.95,2.6 -7.94,3.91 -14.96,3.91 h -126.49 v 156.42 c 43.29,38.76 73.72,63.12 91.29,73.1 17.57,9.97 32.59,14.96 45.06,14.96 5.66,0 11.44,-1.47 17.34,-4.42 5.89,-2.95 12.8,-8.39 20.74,-16.32 4.3,-4.31 7.25,-6.86 8.84,-7.65 1.59,-0.8 3.51,-1.19 5.78,-1.19 4.31,0 7.88,1.41 10.71,4.25 2.84,2.83 4.25,6.4 4.25,10.71 0,5.89 -7.31,14.56 -21.93,26.01 -14.62,11.45 -30.43,17.18 -47.43,17.18 -15.64,0 -32.7,-4.82 -51.18,-14.46 -18.48,-9.63 -46.3,-31.23 -83.47,-64.77 v 72.09 z m 559.32,10.2 c -33.32,0 -62,-7.2 -86.03,-21.6 -24.03,-14.39 -36.04,-33.83 -36.04,-58.31 0,-13.6 4.3,-26.3 12.92,-38.08 8.61,-11.79 20.63,-20.64 36.04,-26.53 15.42,-5.89 40.86,-10.66 76.34,-14.28 35.48,-3.63 62.51,-10.77 81.1,-21.42 18.36,-10.66 27.54,-24.82 27.54,-42.5 0,-15.42 -9.07,-30.04 -27.2,-43.87 -18.14,-13.83 -45.79,-20.74 -82.97,-20.74 -25.16,0 -46.41,3.57 -63.75,10.71 -17.35,7.14 -29.99,16.15 -37.92,27.03 -5.21,7.03 -7.82,15.76 -7.82,26.19 0,4.76 -1.42,8.55 -4.25,11.39 -2.84,2.83 -6.29,4.25 -10.37,4.25 -4.31,0 -7.77,-1.48 -10.37,-4.42 -2.61,-2.95 -3.91,-7.82 -3.91,-14.62 v -58.83 c 0,-6.8 1.36,-11.68 4.08,-14.62 2.72,-2.95 6.12,-4.42 10.2,-4.42 2.94,0 5.61,0.79 7.99,2.38 2.38,1.58 4.02,3.51 4.93,5.78 0.9,2.26 1.36,7.25 1.36,14.96 28.79,-22.9 65.74,-34.34 110.85,-34.34 45.11,0 79.34,9.47 102.69,28.39 23.35,18.93 35.02,40.52 35.02,64.78 0,16.32 -5.38,31.5 -16.15,45.56 -10.77,14.05 -27.15,25.05 -49.13,32.98 -15.42,5.44 -42.96,10.32 -82.63,14.62 -30.38,3.4 -51,8.28 -61.88,14.63 -15.87,9.06 -23.81,20.4 -23.81,34 0,12.01 6.69,22.89 20.06,32.64 17.69,12.92 42.51,19.38 74.47,19.38 30.6,0 55.2,-6.35 73.79,-19.04 12.69,-8.84 19.72,-20.06 21.08,-33.66 0.45,-5.67 1.98,-9.75 4.59,-12.24 2.6,-2.5 5.83,-3.74 9.69,-3.74 4.3,0 7.82,1.47 10.54,4.42 2.72,2.94 4.08,7.82 4.08,14.62 v 48.96 c 0,7.03 -1.36,12.02 -4.08,14.96 -2.72,2.95 -6.24,4.43 -10.54,4.43 -4.08,0 -7.48,-1.48 -10.2,-4.43 -2.72,-2.94 -4.08,-7.7 -4.08,-14.28 -24.71,19.27 -56.79,28.91 -96.23,28.91 z m 979.81,-304.67 c 7.02,0 12.01,1.36 14.96,4.08 2.94,2.72 4.42,6.12 4.42,10.2 0,4.3 -1.48,7.76 -4.42,10.37 -2.95,2.6 -7.94,3.91 -14.96,3.91 h -38.09 v 189.06 c 0,22.44 -10.09,42.56 -30.26,60.35 -20.18,17.8 -48.28,26.7 -84.33,26.7 -18.14,0 -44.88,-4.76 -80.24,-14.29 -22.45,-5.89 -35.26,-10.54 -38.43,-13.94 -2.27,-2.27 -3.4,-5.33 -3.4,-9.18 0,-4.08 1.3,-7.48 3.91,-10.2 2.61,-2.72 5.72,-4.08 9.35,-4.08 2.04,0 6.69,1.13 13.94,3.4 40.13,12.92 71.29,19.38 93.51,19.38 29.02,0 50.78,-5.78 65.29,-17.34 14.5,-11.56 21.76,-25.16 21.76,-40.8 v -46.25 c -17.91,3.63 -34.57,6.29 -49.98,7.99 -15.42,1.7 -29.7,2.56 -42.85,2.56 -48.74,0 -85.8,-10.32 -111.19,-30.95 -25.39,-20.63 -38.08,-44.77 -38.08,-72.42 0,-25.17 9.63,-46.42 28.9,-63.76 19.27,-17.34 46.02,-26.01 80.25,-26.01 47.15,0 91.47,17.45 132.95,52.36 v -41.14 z m -66.99,79.23 c -22.44,-21.54 -44.26,-37.24 -65.46,-47.1 -21.19,-9.86 -44.15,-14.79 -68.85,-14.79 -25.84,0 -45.51,5.89 -59,17.68 -13.49,11.79 -20.23,26.3 -20.23,43.53 0,18.58 8.84,34.56 26.52,47.94 23.35,17.9 55.77,26.86 97.25,26.86 16.55,0 32.31,-0.91 47.27,-2.72 14.96,-1.81 29.12,-4.65 42.5,-8.5 z m 245.13,-10.55 c -9.18,-8.84 -13.77,-19.83 -13.77,-32.98 0,-12.7 4.53,-23.52 13.6,-32.47 9.06,-8.95 19.94,-13.43 32.64,-13.43 h 12.24 c 12.47,0 23.29,4.42 32.48,13.26 9.18,8.84 13.77,19.83 13.77,32.98 0,12.69 -4.54,23.52 -13.6,32.47 -9.07,8.96 -19.95,13.44 -32.65,13.44 h -12.24 c -12.47,0 -23.29,-4.42 -32.47,-13.27 z m 483.46,235.99 c -33.32,0 -62,-7.2 -86.02,-21.6 -24.03,-14.39 -36.05,-33.83 -36.05,-58.31 0,-13.6 4.31,-26.3 12.93,-38.08 8.61,-11.79 20.62,-20.64 36.04,-26.53 15.41,-5.89 40.86,-10.66 76.33,-14.28 35.48,-3.63 62.51,-10.77 81.1,-21.42 18.36,-10.66 27.55,-24.82 27.55,-42.5 0,-15.42 -9.07,-30.04 -27.21,-43.87 -18.14,-13.83 -45.79,-20.74 -82.97,-20.74 -25.16,0 -46.41,3.57 -63.75,10.71 -17.34,7.14 -29.98,16.15 -37.91,27.03 -5.22,7.03 -7.83,15.76 -7.83,26.19 0,4.76 -1.41,8.55 -4.25,11.39 -2.83,2.83 -6.29,4.25 -10.37,4.25 -4.31,0 -7.76,-1.48 -10.37,-4.42 -2.61,-2.95 -3.91,-7.82 -3.91,-14.62 v -58.83 c 0,-6.8 1.36,-11.68 4.08,-14.62 2.72,-2.95 6.12,-4.42 10.2,-4.42 2.95,0 5.61,0.79 7.99,2.38 2.38,1.58 4.03,3.51 4.94,5.78 0.9,2.26 1.36,7.25 1.36,14.96 28.78,-22.9 65.73,-34.34 110.85,-34.34 45.1,0 79.33,9.47 102.68,28.39 23.35,18.93 35.03,40.52 35.03,64.78 0,16.32 -5.39,31.5 -16.15,45.56 -10.77,14.05 -27.15,25.05 -49.14,32.98 -15.42,5.44 -42.96,10.32 -82.63,14.62 -30.38,3.4 -51,8.28 -61.88,14.63 -15.87,9.06 -23.8,20.4 -23.8,34 0,12.01 6.68,22.89 20.06,32.64 17.68,12.92 42.5,19.38 74.46,19.38 30.61,0 55.2,-6.35 73.79,-19.04 12.69,-8.84 19.72,-20.06 21.08,-33.66 0.46,-5.67 1.99,-9.75 4.59,-12.24 2.61,-2.5 5.84,-3.74 9.69,-3.74 4.31,0 7.83,1.47 10.55,4.42 2.72,2.94 4.08,7.82 4.08,14.62 v 48.96 c 0,7.03 -1.36,12.02 -4.08,14.96 -2.72,2.95 -6.24,4.43 -10.55,4.43 -4.08,0 -7.48,-1.48 -10.2,-4.43 -2.72,-2.94 -4.08,-7.7 -4.08,-14.28 -24.71,19.27 -56.78,28.91 -96.23,28.91 z m 329.12,-235.99 c -9.18,-8.84 -13.77,-19.83 -13.77,-32.98 0,-12.7 4.53,-23.52 13.6,-32.47 9.06,-8.95 19.95,-13.43 32.64,-13.43 h 12.24 c 12.47,0 23.3,4.42 32.48,13.26 9.18,8.84 13.77,19.83 13.77,32.98 0,12.69 -4.54,23.52 -13.6,32.47 -9.07,8.96 -19.95,13.44 -32.65,13.44 h -12.24 c -12.47,0 -23.29,-4.42 -32.47,-13.27"
   style="fill:#ed1c24;fill-opacity:1;fill-rule:nonzero;stroke:none"
   transform="matrix(0.13333333,0,0,-0.13333333,0,793.70667)" />&#10;  </g>&#10;</svg>
